<svg height="27" viewBox="0 0 131 27" width="131" xmlns="http://www.w3.org/2000/svg" xmlns:xlink="http://www.w3.org/1999/xlink"><mask id="a" fill="#fff"><path d="m0 27h130.061833v-27h-130.061833z" fill="#fff" fill-rule="evenodd"/></mask><g fill="#c81919" fill-rule="evenodd" transform="translate(.383912)"><path d="m74.2647517 6.7500253v-5.05152475h3.40024v1.02730868h-2.2221244v.95595374h2.1006691v.97771447h-2.1006691v1.04856334h2.3511705v1.04198452z"/><path d="m78.7839484 6.74987348h1.2287219v-5.05152475h-1.2287219z"/><path d="m84.4013533 6.7500253-2.035387-3.3035818h-.0212547l.0278335 3.3035818h-1.1857065v-5.05152475h1.3926865l2.0293141 3.29649692h.0212547l-.0283395-3.29649692h1.1857065v5.05152475z"/><path d="m90.4137912 4.20984012c0-.28541975-.0465579-.52225742-.1391675-.71000693-.0931156-.18774952-.2171012-.33754428-.3714505-.44938429s-.3314715-.19129196-.5288362-.23936799c-.1978708-.04706389-.4013083-.07084887-.6108185-.07084887h-.6072761v2.953892h.5789365c.2186194 0 .4296478-.02530317.6320732-.07489738.2024253-.05010028.3815718-.13208254.5359211-.24645287.1543493-.11386426.2783349-.26618934.3714505-.45646918.0926096-.19027983.1391675-.42559931.1391675-.70646449m1.2717373 0c0 .44280547-.0819823.8238712-.2464529 1.14522145-.1644706.32084419-.3815718.58500928-.6502915.79198921-.2692257.20697992-.5728637.359305-.9109141.45646917-.3380503.09767024-.6811613.14675838-1.0283208.14675838h-1.8860982v-5.05203081h1.828407c.3572808 0 .7100069.0414972 1.0576725.12499766.3476655.08299439.6573763.2211497.9286263.41395985.27125.19230409.4903754.45039642.6578824.77377092.1659888.32388057.2494893.72316459.2494893 1.19886417"/><path d="m95.7931944 6.7500253v-2.11180252h-1.971623v2.11180252h-1.2221431v-5.05152475h1.2221431v1.91190749h1.971623v-1.91190749h1.2211309v5.05152475z"/><path d="m102.148136 4.20265402c0-.21861938-.035424-.42306899-.107285-.61334883-.071861-.19027983-.170544-.35373831-.296554-.48885723-.126515-.13562499-.278841-.24291043-.456975-.32135025-.179146-.07843983-.374993-.11740671-.589058-.11740671-.21457 0-.410417.03896688-.586021.11740671-.1761101.07843982-.3289412.18572526-.4574813.32135025-.1290462.13511892-.2272225.2985774-.2965532.48885723-.0688246.19027984-.103743.39472945-.103743.61334883 0 .22823459.0364366.43875696.1072855.63156711.071861.19281015.1705433.35778682.2970592.49594212.1255037.13764924.2773227.24594681.4534328.32438663.175604.07843983.371451.11791277.586021.11791277.214065 0 .4089-.03947294.585516-.11791277.17611-.07843982.327929-.18673739.456469-.32438663.129046-.1381553.228741-.30313197.300602-.49594212s.107285-.40333252.107285-.63156711m1.307162 0c0 .39979008-.069331.76466178-.20698 1.09512118-.138662.33096545-.33046.61385489-.575394.84917436-.244935.23582554-.536427.4175023-.874478.5460424-.338556.12803404-.704946.19230409-1.100182.19230409-.395235 0-.7611189-.06427005-1.096639-.19230409-.3360261-.1285401-.6270125-.31021686-.8719472-.5460424-.2449347-.23531947-.4367327-.51820891-.5753941-.84917436-.1376492-.3304594-.2069799-.6953311-.2069799-1.09512118 0-.40434465.0693307-.76972241.2069799-1.09562724.1386614-.32539876.3304594-.60272149.5753941-.83095608s.5359211-.40383859.8719472-.52782412c.3355201-.12347946.701404-.18572526 1.096639-.18572526.395236 0 .761626.0622458 1.100182.18572526.338051.12398553.629543.29958953.874478.52782412.244934.22823459.436732.50555732.575394.83095608.137649.32590483.20698.69128259.20698 1.09562724"/><path d="m106.708627 6.7500253h-1.221637l-1.914437-5.05152475h1.371431l1.171537 3.58141061h.028846l1.164958-3.58141061h1.349671z"/><path d="m109.24193 6.7500253v-5.05152475h3.40024v1.02730868h-2.221618v.95595374h2.100163v.97771447h-2.100163v1.04856334h2.350158v1.04198452z"/><path d="m116.969265 6.7500253-2.035387-3.3035818h-.021255l.027834 3.3035818h-1.186213v-5.05152475h1.393193l2.028808 3.29649692h.021761l-.02834-3.29649692h1.185201v5.05152475z"/><path d="m76.9151575 19.6153712v4.0100463h-1.221637v-4.0100463h-1.4286169v-1.0419845h4.0783648v1.0419845z"/><path d="m78.9992278 23.6253163v-5.0515248h3.400746v1.0273087h-2.2216183v.9559538h2.099657v.9777144h-2.099657v1.0485634h2.3501584v1.0419845z"/><path d="m87.0482672 23.5358949c-.3284351.1503008-.7064645.2246921-1.1361123.2246921-.3906809 0-.7509981-.06427-1.0819635-.1928101-.3314716-.127528-.6179034-.3102169-.8608139-.5455364-.2424043-.2348134-.4336963-.5171967-.5718516-.8456319-.1381553-.3279291-.2069799-.6897644-.2069799-1.0839878 0-.4048507.0703428-.7712406.2105224-1.0991696.1406856-.3279291.3350139-.6072761.5824789-.838041s.5379454-.4083932.8714412-.5323787c.3334957-.1229734.6933068-.1847131 1.0789271-.1847131.3567747 0 .7084888.0632579 1.053624.1887616.3451352.1265159.6249883.3102169.8395592.5531273l-.8289319.8274136c-.1143703-.1563735-.2641651-.2737803-.4498903-.3491837-.1852192-.0759095-.3765112-.1148764-.5718517-.1148764-.2140648 0-.4104174.039473-.5890577.1184188-.1786404.0779338-.3319776.1867374-.4605177.3238806-.1290462.1386614-.2292467.3011077-.3006017.4888572-.0713549.1882556-.1067794.3937174-.1067794.6179034 0 .2277286.0354245.4372388.1067794.6275186.071355.1902799.1705434.3527262.2965532.4883512.1260098.1361311.2773227.2418983.4539388.3183139.1761101.0759095.3689202.1133582.5784305.1133582.2429104 0 .454951-.0465578.6356156-.1422038.1811707-.0951399.3264109-.2186194.4362266-.3709445l.8496805.798568c-.22368.2575863-.4999907.4605177-.8284258.6103125"/><path d="m91.709111 23.6253163v-2.1118025h-1.9716229v2.1118025h-1.2221431v-5.0515248h1.2221431v1.9119075h1.9716229v-1.9119075h1.221637v5.0515248z"/><path d="m97.3247446 23.6253163-2.0353869-3.3035818h-.0212547l.0278335 3.3035818h-1.1862126v-5.0515248h1.3931925l2.0288082 3.296497h.0217607l-.0283396-3.296497h1.1852005v5.0515248z"/><path d="m103.839805 21.077692c0-.2186194-.035931-.423069-.107286-.6133489-.071355-.1902798-.170037-.3527261-.296047-.4888572-.126516-.1351189-.278841-.2424043-.457481-.3213502-.178641-.0784399-.374487-.1174067-.589564-.1174067-.214065 0-.409405.0389668-.585009.1174067-.177122.0789459-.329448.1862313-.457988.3213502-.12854.1361311-.227222.2985774-.296553.4888572-.068318.1902799-.103237.3947295-.103237.6133489 0 .2282346.035931.4387569.107286.6315671.071355.1933162.170037.3582929.296047.4964482.126516.1371431.277323.2459468.454445.3243866.175604.0779338.370944.1179128.585009.1179128.215077 0 .409911-.039979.586021-.1179128.17611-.0784398.328436-.1872435.456976-.3243866.129046-.1381553.22874-.303132.300095-.4964482.071355-.1928102.107286-.4033325.107286-.6315671m1.307161 0c0 .3997901-.068824.7651678-.206979 1.0956272-.138156.3304594-.329954.6138549-.574889.8491744-.24544.2358255-.536427.4169962-.874983.5460424-.338557.1285401-.704946.1923041-1.100688.1923041-.394729 0-.760613-.063764-1.096639-.1923041-.33552-.1290462-.626001-.3102169-.871441-.5460424-.245441-.2353195-.4367332-.518715-.5748885-.8491744s-.207486-.6958371-.207486-1.0956272c0-.4043447.0693307-.7697224.207486-1.0946151.1381553-.3264109.3294475-.6027215.5748885-.8319682.24544-.2282346.535921-.4033326.871441-.5278242.336026-.1234794.70191-.1857252 1.096639-.1857252.395742 0 .762131.0622458 1.100688.1857252.338556.1244916.629543.2995896.874983.5278242.244935.2292467.436733.5055573.574889.8319682.138155.3248927.206979.6902704.206979 1.0946151"/><path d="m106.065674 23.6253163v-5.0515248h1.228722v3.9882856h1.957453v1.0632392z"/><path d="m113.816288 21.077692c0-.2186194-.035425-.423069-.10678-.6133489-.072367-.1902798-.171049-.3527261-.297059-.4888572-.126516-.1351189-.278841-.2424043-.456975-.3213502-.179147-.0784399-.374993-.1174067-.589564-.1174067-.214065 0-.409911.0389668-.585515.1174067-.176616.0789459-.328941.1862313-.457988.3213502-.12854.1361311-.226716.2985774-.296047.4888572-.068824.1902799-.103743.3947295-.103743.6133489 0 .2282346.036437.4387569.107792.6315671.071355.1933162.170037.3582929.296553.4964482.12601.1371431.276817.2459468.453433.3243866.175604.0779338.37145.1179128.585515.1179128.214571 0 .409405-.039979.586021-.1179128.176111-.0784398.32793-.1872435.45647-.3243866.129046-.1381553.22874-.303132.301107-.4964482.071355-.1928102.10678-.4033325.10678-.6315671m1.307161 0c0 .3997901-.06933.7651678-.206979 1.0956272-.138662.3304594-.33046.6138549-.574888.8491744-.245441.2358255-.536934.4169962-.874984.5460424-.338556.1285401-.704946.1923041-1.100688.1923041-.395235 0-.760613-.063764-1.096133-.1923041-.336026-.1290462-.627013-.3102169-.871441-.5460424-.245441-.2353195-.437239-.518715-.575901-.8491744-.137649-.3304594-.206979-.6958371-.206979-1.0956272 0-.4043447.06933-.7697224.206979-1.0946151.138662-.3264109.33046-.6027215.575901-.8319682.244428-.2282346.535415-.4033326.871441-.5278242.33552-.1234794.700898-.1857252 1.096133-.1857252.395742 0 .762132.0622458 1.100688.1857252.33805.1244916.629543.2995896.874984.5278242.244428.2292467.436226.5055573.574888.8319682.137649.3248927.206979.6902704.206979 1.0946151"/><path d="m119.646897 23.6322494c-.330965.0809701-.691789.1214552-1.08247.1214552-.404344 0-.777313-.0642701-1.117894-.1928102-.34058-.1285401-.633591-.3092047-.878526-.5419939-.24544-.2332952-.437238-.5126422-.575394-.8380409-.138155-.3264109-.20698-.6887523-.20698-1.0890485 0-.4033325.070343-.7702284.211029-1.0981575.140179-.3284351.334002-.6082882.582479-.838547.246959-.230765.537439-.4073811.870935-.5313666s.692801-.1862313 1.078927-.1862313c.39979 0 .771241.0607276 1.114352.1826889.342605.120443.621445.2839015.836522.4888572l-.772252.8770078c-.119431-.1381553-.276311-.2505013-.471651-.3390624-.195341-.087549-.416491-.1315765-.664462-.1315765-.214064 0-.411429.0389669-.5926.1179128-.181171.0779337-.338556.1882555-.471651.327929-.133601.1401796-.236838.3071805-.310723.4989785-.073885.1928102-.110828.4033326-.110828.6315671 0 .2332953.0334.4473601.100201.6427005.067306.1953405.165483.3628475.296553.5030271.130564.1401795.292505.2494892.485821.3284351.19281.0784398.412948.1174067.660413.1174067.143215 0 .27884-.0106273.407381-.031882.12854-.0212547.247465-.056173.35728-.103743v-.9205293h-.964556v-.9842933h2.085993v2.6755572c-.247465.1285401-.536933.2332952-.867899.3137593"/><path d="m124.026977 21.4844657v2.1406482h-1.221637v-2.1406482l-1.900268-2.9108766h1.478717l1.078927 1.8688921 1.078927-1.8688921h1.428617z"/><path d="m78.4471632 14.1133994c-.1027308.2499953-.2489832.4640602-.4397691.6432066-.1902798.1776283-.4200326.3162896-.6882462.4169962-.2702378.0996945-.5688152.1497948-.8972503.1497948-.3334958 0-.6335914-.0501003-.9002868-.1497948-.2666954-.1007066-.4929058-.2393679-.678631-.4169962-.1857253-.1791464-.3284352-.3932113-.4286357-.6432066-.1002006-.2494892-.1503008-.526812-.1503008-.8314621v-3.14569h1.2145521v3.0465016c0 .1381553.0177122.2682136.0536427.3927052.0364366.1234794.0905854.2338012.1644706.3309654.0733792.0976702.1715555.175604.2935168.2327892.1209491.056173.2672014.0855247.4387569.0855247s.3178078-.0293517.4392631-.0855247c.1214552-.0571852.2201375-.135119.2965531-.2327892.0759095-.0971642.1310704-.207486.1644706-.3309654.0328941-.1244916.0495942-.2545499.0495942-.3927052v-3.0465016h1.221637v3.14569c0 .3046501-.0511124.5819729-.1533372.8314621"/><path d="m82.9498622 15.1873166-2.0353869-3.3035819h-.0212547l.0278335 3.3035819h-1.1862126v-5.0510187h1.3931925l2.0288082 3.2959908h.0217607l-.0283396-3.2959908h1.1852005v5.0510187z"/><path d="m85.510543 15.1874684h1.2287219v-5.0515248h-1.2287219z" mask="url(#a)"/><path d="m90.4577681 15.1873166h-1.221637l-1.9144378-5.0510187h1.3719378l1.1715367 3.5814106h.0283396l1.1649579-3.5814106h1.3496711z" mask="url(#a)"/><path d="m92.9910708 15.1873166v-5.0510187h3.4002399v1.0268026h-2.2216183v.9564598h2.1001631v.9777145h-2.1001631v1.0480572h2.3511705v1.0419846z" mask="url(#a)"/><path d="m100.161432 11.6843964c0-.1189249-.025809-.215077-.075403-.2889622-.0501-.0738853-.1148765-.1310704-.1938224-.1715555-.0789459-.039979-.167507-.0678125-.2661893-.0819823-.0976703-.0141697-.191798-.0212546-.2828895-.0212546h-.6533278v1.1771034h.5809608c.1002005 0 .2039435-.008097.3092047-.0247971s.2009072-.0465578.286938-.0895732c.0860307-.0425093.1568795-.1042491.2120405-.1852192.054655-.0809702.082488-.1857253.082488-.3137593zm.050101 3.5029708-1.0981579-2.0050232h-.4169963v2.0050232h-1.1922853v-5.0515248h1.9286076c.2429104 0 .4797481.0253032.7110189.0748974.230765.0501003.438251.1346129.62094.2530317.183701.1194309.329953.2763106.439769.471145.108804.1953405.164471.4377448.164471.7277192 0 .3426049-.093622.6305549-.278841.8638502-.185726.2327891-.442806.399284-.771241.4989785l1.321332 2.1619028z" mask="url(#a)"/><path d="m105.055065 11.4486721c-.104755-.1330947-.242404-.238862-.410923-.3173018-.169025-.0784398-.332484-.1179128-.489363-.1179128-.080971 0-.163459.0070849-.246959.0217608-.083501.0136637-.157892.0414972-.224186.0819822-.067307.0404851-.122974.0926096-.168014.1568797-.046051.06427-.068318.1462523-.068318.2459468 0 .0860308.017712.1568796.054149.2140648.035424.0571852.088055.1067794.156373.1497948.069331.0430154.151819.0819822.246959.1179127.095646.0354245.202426.0723671.320844.1108279.171556.0566791.350702.119937.536428.1887617.185725.0688246.35475.1604221.507075.2747924.152831.1143703.278841.255562.379042.4245872.099188.1690251.149794.3795475.149794.6315671 0 .2899743-.054148.5409817-.161434.7525162-.107285.2120406-.251007.3866325-.431672.5242817-.181171.1381553-.388657.2403801-.621952.3071805s-.473169.0996945-.720634.0996945c-.362341 0-.713043-.0627519-1.051094-.1887617-.33805-.1260098-.618409-.3056623-.843101-.5389575l.800592-.8132438c.123985.151819.287444.2793469.489363.3815717.202932.1022249.403839.1533373.60424.1533373.089573 0 .17864-.0096153.264165-.0283396s.159916-.0501003.224186-.0926096c.06427-.0430154.115889-.1002005.154349-.1715555.037449-.0713549.05668-.1568796.05668-.2570802 0-.0951399-.023279-.175604-.070849-.2424043-.04757-.0662944-.116395-.127528-.20445-.1821829-.087549-.0541488-.196859-.104249-.327929-.1492887-.131577-.0455457-.280359-.0941278-.446854-.1462523-.161434-.0526306-.320338-.1143703-.474687-.1857253-.154856-.0713549-.293011-.1629524-.414972-.2747924-.121456-.11184-.21862-.2469589-.292505-.4063689-.073885-.1594099-.110322-.3537383-.110322-.5819729 0-.2803591.057185-.5207392.170543-.7206342.114877-.1998951.265178-.3638596.450903-.4923997.185219-.1285401.394729-.2221618.628025-.2813713.233295-.0597154.469626-.0895732.707982-.0895732.284914 0 .576913.0526306.874478.1568797.298071.1047551.558694.2596105.78288.4640601z" mask="url(#a)"/><path d="m106.730287 15.1874684h1.229228v-5.0515248h-1.229228z" mask="url(#a)"/><path d="m111.261224 11.1776245v4.0100463h-1.221637v-4.0100463h-1.428617v-1.0419845h4.078871v1.0419845z" mask="url(#a)"/><path d="m116.14843 13.0471745v2.1401421h-1.221637v-2.1401421l-1.900268-2.9113827h1.478717l1.078928 1.8693982 1.078927-1.8693982h1.428617z" mask="url(#a)"/><path d="m124.506371 12.6404513c0-.2191254-.035425-.423069-.10678-.6133488-.071861-.1907859-.170543-.3537383-.296553-.4888572-.126516-.135625-.278841-.2429105-.457481-.3213503s-.374487-.1174067-.589564-.1174067c-.214065 0-.409405.0389669-.585009.1174067-.177122.0784398-.328941.1857253-.457988.3213503-.12854.1351189-.227222.2980713-.296047.4888572-.068824.1902798-.103743.3942234-.103743.6133488 0 .2282346.035931.438757.107286.6315671.071355.1923041.170037.3577869.296553.4959422.12601.1376492.276817.2459468.453939.3243866.175604.0784398.370944.1179128.585009.1179128.215077 0 .409911-.039473.586022-.1179128.17611-.0784398.328435-.1867374.456975-.3243866.129046-.1381553.22874-.3036381.300601-.4959422.071355-.1928101.10678-.4033325.10678-.6315671m1.307162 0c0 .3997901-.068825.7646618-.20698 1.0951212-.138156.3309655-.329954.6138549-.574888.8491744-.245441.2358255-.536428.4175023-.874478.5460424-.339062.128034-.705452.1923041-1.101194.1923041-.394729 0-.760613-.0642701-1.096133-.1923041-.336026-.1285401-.626507-.3102169-.871441-.5460424-.245441-.2353195-.437239-.5182089-.575394-.8491744-.138156-.3304594-.20698-.6953311-.20698-1.0951212 0-.4043446.068824-.7697224.20698-1.0956272.138155-.3253988.329953-.6027215.575394-.8309561.244934-.2282346.535415-.4043446.871441-.5283302.33552-.1234794.701404-.1852192 1.096133-.1852192.395742 0 .762132.0617398 1.101194.1852192.33805.1239856.629037.3000956.874478.5283302.244934.2282346.436732.5055573.574888.8309561.138155.3259048.20698.6912826.20698 1.0956272" mask="url(#a)"/><path d="m127.940061 11.1776245v1.0419845h1.956948v1.006054h-1.956948v1.9620078h-1.207973v-5.0520308h3.329391v1.0419845z" mask="url(#a)"/><path d="m11.7963376 6.21086537v17.41212303h-5.43714505v-17.41212303h-6.35919255v-4.52319457h18.1550241v4.52319457z" mask="url(#a)"/><path d="m38.8665286 18.9600697c-.4559631 1.0844939-1.1077728 2.0136262-1.9554289 2.7884093-.8481623.774783-1.8709164 1.3785167-3.0682624 1.8127191-1.197852.4336963-2.5272805.6502914-3.9903098.6502914-1.4837779 0-2.8187731-.2165951-4.0059978-.6502914-1.1872247-.4342024-2.1937848-1.0379361-3.0201863-1.8127191-.8269076-.7747831-1.4630292-1.7039154-1.907859-2.7884093-.4453357-1.0849999-.6680036-2.2879126-.6680036-3.6092441v-13.66320541h5.405263v13.22900301c0 .5996852.079452 1.1674883.2388619 1.7039155.1583979.5369332.4018144 1.0181995.7312616 1.4412685.3279291.4235751.7626376.7590951 1.3031133 1.0065601.5409817.2479711 1.1922853.3719566 1.9554289.3719566s1.4149532-.1239855 1.9554289-.3719566c.5404757-.247465.9802448-.582985 1.3198134-1.0065601.3385564-.423069.5824789-.9043353.7307555-1.4412685.1482766-.5364272.2226679-1.1042303.2226679-1.7039155v-13.22900301h5.437145v13.66320541c0 1.3213315-.2282346 2.5242442-.6836916 3.6092441" mask="url(#a)"/><path d="m42.9142766 27.000253 11.0230728-27.00050603h-3.9376793l-11.0225667 27.00050603z" mask="url(#a)"/><path d="m59.2908927 11.3389575c1.9468259 0 3.6137987 1.1948157 4.3101419 2.8906341h-8.6207898c.6963432-1.6958184 2.3638221-2.8906341 4.3106479-2.8906341m0-3.55357711c-4.5353401 0-8.2123966 3.67655051-8.2123966 8.21189061s3.6770565 8.2123967 8.2123966 8.2123967c2.9103706 0 5.8839991-1.2737616 7.4897382-3.568759l-3.7251326-1.5186963c-.9913782 1.0996758-2.3501584 1.5333721-3.7646056 1.5333721-2.0875114 0-3.8541787-1.373456-4.446779-3.265627h12.5387326c.0774277-.4529268.1209492-.917493.1209492-1.3926865 0-4.5353401-3.6775627-8.21189061-8.2129028-8.21189061" mask="url(#a)"/></g></svg>