<svg height="29" viewBox="0 0 83 29" width="83" xmlns="http://www.w3.org/2000/svg"><g fill="#393939" fill-rule="evenodd" transform="translate(-1 -1)"><path d="m5.08521739 12.7154706c-1.97163043 0-2.04-1.9365882-2.04-2.99605884v-8.10194117h-1.7923913v8.05452941c.01293478 2.9668824 1.01630434 4.3436471 3.81945652 4.3436471 2.52228261 0 3.82130435-.9810589 3.8323913-4.19229416v-8.20588235h-1.75913043v7.99070588c-.00184783 1.82717643-.31782609 3.10729413-2.06032609 3.10729413"/><path d="m19.6128261 13.795v-12.17752941h-1.6002174v10.82811761l-3.8601087-10.82811761h-2.7070652v12.17752941h1.4856522v-10.84452941l3.8582608 10.84452941z"/><path d="m63.1827174 29.7636471v-12.179353h-1.5983696v10.8281177l-3.8601087-10.8281177h-2.7070652v12.179353h1.4856522v-10.8445295l3.8582609 10.8445295z"/><path d="m24.3580435 13.7968235v-12.17935291h-1.8090218v12.17752941z"/><path d="m64.9843478 13.7968235v-12.17935291h-1.8090217v12.17752941z"/><path d="m30.2655435 12.2650588-2.4151087-10.64758821h-1.8792391l3.1191304 12.17752941h2.1748913l3.2558696-12.17752941h-1.753587z"/><path d="m42.2634783 12.4492353h-4.3775v-4.31082354h3.9802174v-1.30017647h-3.9802174v-3.87135294h4.2573913v-1.34941176h-6.046087v12.17752941h6.1661957z"/><path d="m52.7517391 28.4178824h-4.3775v-4.3126471h3.9802174v-1.3001765h-3.9802174v-3.8713529h4.2573913v-1.3494118h-6.0479347v12.179353h6.1680434z"/><path d="m80.0847826 28.4178824h-4.3756522v-4.3126471h3.9783696v-1.3001765h-3.9783696v-3.8713529h4.2555435v-1.3494118h-6.0479348v12.179353h6.1680435z"/><path d="m49.6621778 4.81958824c.0018439 1.69770588-.65783 2.17364705-2.3171778 2.17547058h-1.0680435v-4.06282353h1.3526087c1.2177174.00364706 2.0307609.434 2.0326126 1.88735295zm-.5358735 4.00994117c.2069566.28994118.3270653.87894118.3732609 1.80529409.011087.2279412.0147826 1.9876471.181087 3.1601765h1.8626087c-.1736957-.8552353-.2439131-3.1164118-.2439131-3.4628824 0-.90994113-.1903261-1.63752936-.3880435-1.93658819-.2568478-.39388235-.85-.70023529-1.5410869-.7567647 1.4560869-.25164706 2.125-1.39135295 2.125-2.96870589 0-2.59305882-1.4616304-3.05258823-3.5053261-3.05258823h-3.5219565v12.17752941h1.8090217v-5.48335294h1.2158696c.8315217 0 1.3821739.16047059 1.6334782.51788235z"/><path d="m53.5426087 10.4068824c.0129348 2.5675294.9054348 3.5941764 3.6272826 3.6088219 2.4280435.0090604 3.601413-1.070469 3.6107132-3.2568808.0073303-1.8618235-.6560393-2.38335291-2.6110393-3.62152938-.3011956-.18782353-.5913043-.38111765-.8795652-.56164706-.818587-.51605882-1.7369565-.93729412-1.7369565-2.19370588 0-1.12694118.6929348-1.69588236 1.6630435-1.69770589 1.0735869-.00182353 1.6279347.6382353 1.6297826 1.84541177v.24617647h1.8071739v-.38111765c-.0073913-2.02229412-1.0920652-3.00152941-3.3501087-3.01252505-2.3522826-.00906318-3.581087 1.12699564-3.5866305 3.13652505-.0073913 1.96211765 1.1068479 2.67511765 2.9509783 3.8002353.436087.26805882.7890217.4777647 1.0551087.651.5469565.3537647 1.221413.868 1.2195652 1.94205882-.0018478 1.1925882-.6079348 1.8180588-1.773913 1.8198824-1.3673913.0018235-1.7720652-.8607059-1.7739131-2.325v-.0729412h-1.8515217z"/><path d="m67.628587 18.9337059v10.8299412h1.805326v-10.8299412h2.8789131v-1.3494118h-7.5631522v1.3494118zm-42.1747827 0v10.8299412h1.807174v-10.8299412h2.8770652v-1.3494118h-7.5613044v1.3494118zm44.0392392-15.96682355v10.82811765h1.8053261v-10.82811765h2.878913v-1.34941176h-7.5631522v1.34941176z"/><path d="m38.111413 19.3367059 1.9864131 10.4269412h2.1545652l2.7440217-12.179353h-1.677826l-2.0326087 10.3211765-2.0159783-10.3211765h-2.1545652l-2.1878261 10.3211765-1.8977174-10.3211765h-1.9125l2.6257609 12.179353h2.1527174z"/><path d="m83.6584783 29.0962353c0 .5142353-.4213044.93-.9442392.93-.5210869 0-.9442391-.4157647-.9442391-.93 0-.5160588.4231522-.9318235.9442391-.9318235.5229348 0 .9442392.4157647.9442392.9318235"/><path d="m77.86 9.16323529v4.63176471h1.8071739v-4.63176471l3.411087-7.5457647h-1.8422826l-2.3356522 5.983-2.2839131-5.983h-1.9993478z"/><path d="m5.17391304 28.6968959c-.62086956.00181-1.09206521-.180543-1.39510869-.5507194-.27347826-.3318824-.45826087-.833353-.56358696-1.5080589-.04804348-.2771764-.07760869-.6655882-.09608696-1.1652352-.01663043-.4978236-.02586956-1.1178236-.02586956-1.8545295 0-.7950588.01293478-1.4424117.0351087-1.9438823.02217391-.4996471.0572826-.8661765.10532608-1.0977647.26054348-1.2618824.91836957-1.9238235 1.94021739-1.9202119 1.02923913-.0054352 1.67782609.6236825 1.90695653 1.8180942.10347826.5744118.15521739 1.6047059.15521739 3.0908824 0 .806-.01293479 1.4697647-.0351087 1.9931176-.02402174.523353-.05913043.9154118-.10532609 1.1834706-.2125 1.2782941-.8647826 1.9548371-1.91065217 1.9548371-.00369565 0-.0073913 0-.01108696 0zm-2.90108695-10.2628371c-.43793479.5215294-.72804348 1.2345294-.86478261 2.1462941-.10347826.6637647-.15521739 1.7414706-.15521739 3.224 0 1.2235883.03326087 2.1225883.10347826 2.6988236.09054348.7531176.25130435 1.3658235.47673913 1.832647.5525 1.0977647 1.63347826 1.6466471 3.28728261 1.6502941 1.73510869-.003647 2.85673913-.5744117 3.41108695-1.7177647.38065218-.7622353.58021739-2.263.57838229-4.4822353 0-1.5408823-.05175185-2.6459411-.15338229-3.3078823-.13673913-.9555294-.43423913-1.6685294-.88141304-2.1444706-.60423913-.651-1.56695652-.9828823-2.90108696-.9828823-1.31195652 0-2.27097826.3628823-2.90108695 1.0831764z"/><path d="m11.6745652 29.7654706h1.7905435v-5.6310588h3.6882609v-1.3056471h-3.6882609v-3.9005294h3.8933696v-1.3402941h-5.6839131z"/></g></svg>