<svg height="34" viewBox="0 0 88 34" width="88" xmlns="http://www.w3.org/2000/svg" xmlns:xlink="http://www.w3.org/1999/xlink"><mask id="a" fill="#fff"><path d="m0 34h87.2714339v-34h-87.2714339z" fill="#fff" fill-rule="evenodd"/></mask><g fill="none" fill-rule="evenodd"><path d="m28.7140789 16.8245948v10.4163471c-.070106 2.144542-1.1889975 3.4961854-3.3784073 3.4961854-2.1915131 0-3.3097035-1.3516434-3.3805106-3.4961854v-10.4163471h-4.6606458v10.6505011c.046971 4.6830797 3.7983422 6.5247639 8.0411564 6.5247639 4.2407109 0 7.9927832-1.8416842 8.0390531-6.5247639v-10.6505011z" fill="#009ee2"/><g fill="#1d1d1b"><path d="m40.3685678 18.8285043h3.4029444c2.3534579 0 3.6104582.9562456 4.2659491 1.9110891 1.0004124 1.4455854 1.2801353 2.9367396 1.2801353 4.4979999s-.2797229 3.0524145-1.2801353 4.4972989c-.6554909.9555445-1.9124912 1.9117901-4.2659491 1.9117901h-3.4029444zm-2.331725 14.821106h5.5944575c1.5612602-.0448678 3.2157614-.1626459 4.5667037-1.0242484 2.4488021-1.5619613 3.5655904-4.1965442 3.5655904-7.3877686 0-3.1933276-1.1167883-5.8258072-3.5655904-7.3877686-1.3509423-.8623036-3.0054435-.9786795-4.5667037-1.0249494h-5.5944575z"/><path d="m64.484255 28.2195513v-1.0950554c0-3.2388965-1.6538001-5.4528435-5.1492845-5.5222484-3.7051012 0-5.4304095 2.8652316-5.4304095 6.291311 0 3.4499155 1.4925564 6.1062312 5.2439276 6.1062312 2.7958266 0 4.8471277-1.3271063 5.1962555-3.9848241h-2.3289208c-.2572889 1.7007711-1.1188915 2.3772939-2.8441997 2.3772939-2.2602169 0-3.0986845-2.1221082-2.9367397-4.1727082zm-8.2493711-1.5367231c0-1.9110892 1.0950555-3.4730505 2.9367397-3.4730505 2.143841 0 3.0306816 1.5163925 2.9823085 3.4730505z"/><path d="m67.1713473 33.6494701h2.2139469v-16.8254361h-2.2139469z" mask="url(#a)"/><path d="m76.3748608 33.6493299v-10.1597592h2.7032868v-1.5381253h-2.7032868v-1.8641181c-.0694049-1.2822384.6533878-1.6082313 1.9117902-1.6082313.3722628 0 .7459277.04627 1.1188915.070106v-1.8409831c-.5370118-.093942-1.0487855-.2334529-1.5857974-.2334529-1.652398 0-3.5887253.6758217-3.6588312 3.2395975v2.2370819h-2.2826509v1.5381253h2.2826509v10.1597592z" mask="url(#a)"/><path d="m80.3512021 21.9497629v1.5374242h2.003629v7.4599777c0 1.5619613.1177781 1.6089324.5131758 2.166976.3736649.5117737.9555446.6989566 1.3046724.7690626.5370118.093241.9562456.116376 1.4925564.116376.5131758 0 1.0011134-.116376 1.5149903-.1395109v-1.7014723c-.3505299.093942-.8167347.1395109-1.1672646.1395109-.7921977 0-1.4420801-.3960988-1.4420801-1.2345663v-7.5763537h2.7004825v-1.5374242l-2.7004825.0021032v-3.1933276l-2.2160502.6989567v2.4943709z" mask="url(#a)"/><path d="m5.14984535 33.650732h4.66134686v-13.5620026h5.26636149v-3.2627325h-15.07769391v3.2627325h5.14998556z" mask="url(#a)"/><path d="m16.4147552 8.63986144c-1.1357169.35333416-2.3092911.07220916-2.3064868-1.44768857.0035053-2.31770382 5.4451317-4.26034063 6.1994721-6.2857025.1878841-.50476308.1984-.91979051-.0420636-.90647037-.1745639.00911378-.0371561.26149532-.4192337.64357293-2.2560106 2.2553095-6.0326199 2.2518042-8.9315024 3.55086808-1.89917108.85108664-7.46979255 3.47445255-6.1875541 9.31988949.0609922.2776197.22714338 1.207225.39679986 1.207225.19980206 0 .19699782-.5524351.18928616-1.2233494-.04206359-3.4814631 4.08086931-4.45313208 5.42199678-6.72666913.1605427-.27201122.4388635-.65338777.503361-.47672069.0322487.08623036.0112169.21242113-.0427647.45428678-.4199348 1.86972658-2.37448965 3.0685389-1.82065238 4.40546004.71718418 1.7330199 2.79091918.4402656 3.42537838-.6744196.1717596-.3077653.2678048-.50195883.3813765-.4634005.0855293.0294445.0834262.3813765.0294446.6989566-.3400141 2.0120418-.8027136 3.1407481-2.2756403 4.2862799-.4711122.3659532-1.21073032.4423687-1.11468512.7241948.02523815.0729102.34492142.0644975.59870512.0406614 3.9217287-.2530826 7.1984824-4.874469 8.0684976-7.89393372.0911378-.21242114.117077-.41222319.0217329-.48513341-.1198812-.0925399-.2909398.11777805-.4655037.27131015-.4472762.39329457-1.0628067.80411564-1.6299642.98078272" mask="url(#a)"/></g></g></svg>