<svg height="27" viewBox="0 0 143 27" width="143" xmlns="http://www.w3.org/2000/svg"><g fill="none" fill-rule="evenodd" transform="translate(.310142)"><path d="m53.4612239 2.58117939-2.5128865 6.90713326h-.9979581l-1.7939748-4.90093635c-.5845288 1.61039158-1.2182579 3.29788809-1.7939747 4.90093635h-.9884118l-2.5128865-6.90713326h1.3430945l1.6691382 4.55653433 1.6684039-4.55653433h1.2380849l1.6691382 4.55653433 1.6691382-4.55653433z" fill="#16465e"/><path d="m73.4475566 4.45225908h-1.2762702v-.53753153c0-.03891963-.028639-.0675586-.0668243-.0675586h-4.2304906c-.0381853 0-.0668243.02863897-.0668243.0675586v4.24003694c0 .0381853.028639.06755861.0668243.06755861h4.2304906c.0381853 0 .0668243-.02937331.0668243-.06755861v-1.30417485h-1.56266v-1.26672389h2.8389302v2.57089874c0 .73947301-.6036215 1.33354816-1.3430945 1.33354816h-4.2304906c-.7380044 0-1.3335482-.59407515-1.3335482-1.33354816v-4.24003694c0-.73873868.5955438-1.33354816 1.3335482-1.33354816h4.2304906c.739473 0 1.3430945.59480948 1.3430945 1.33354816z" fill="#16465e"/><path d="m83.8449731 3.84716895h-5.0749732v1.55458229h4.0865614v1.26598956h-4.0865614v1.5545823h5.0749732v1.26598955h-6.3512434v-6.90713326h6.3512434z" fill="#16465e"/><path d="m93.2936318 2.58117939h1.2755359v6.90713326h-1.3805455l-4.2591296-5.06469254v5.06469254h-1.2667239v-6.90713326h1.3812798l4.2495833 5.06469255z" fill="#16465e"/><path d="m98.2937031 9.48904698h1.2659895v-6.90786759h-1.2659895z" fill="#16465e"/><path d="m109.093534 2.58117939h1.27627v6.90713326h-1.38128l-4.259129-5.06469254v5.06469254h-1.266724v-6.90713326h1.382014l4.248849 5.06469255z" fill="#16465e"/><path d="m121.044064 4.45225908h-1.275536v-.53753153c0-.03891963-.029373-.0675586-.067558-.0675586h-4.231225c-.037451 0-.066825.02863897-.066825.0675586v4.24003694c0 .0381853.029374.06755861.066825.06755861h4.231225c.038185 0 .067558-.02937331.067558-.06755861v-1.30417485h-1.564128v-1.26672389h2.839664v2.57089874c0 .73947301-.604356 1.33354816-1.343094 1.33354816h-4.231225c-.738005 0-1.333549-.59407515-1.333549-1.33354816v-4.24003694c0-.73873868.595544-1.33354816 1.333549-1.33354816h4.231225c.738738 0 1.343094.59480948 1.343094 1.33354816z" fill="#16465e"/><path d="m131.31591 3.84716895h-5.074239v1.55458229h4.086561v1.26598956h-4.086561v1.5545823h5.074239v1.26598955h-6.351244v-6.90713326h6.351244z" fill="#16465e"/><path d="m140.645606 2.58117939h1.275536v6.90713326h-1.381279l-4.25913-5.06469254v5.06469254h-1.266724v-6.90713326h1.38128l4.250317 5.06469255z" fill="#16465e"/><path d="m57.6572008 5.90036314.6910071-1.98563559c.017624-.04626296.028639-.0675586.0668243-.0675586h2.0994571c.0381853 0 .0455286.01762398.0668243.0675586l.6917414 1.98563559zm4.173947-1.98563559c-.2775777-.81510928-.5955438-1.33354816-1.3335481-1.33354816h-2.0825675c-.7380044 0-1.0559704.51843888-1.3335482 1.33354816l-2.0017909 5.5735851h1.3100495l.8386079-2.32195996h4.4728204l.8481543 2.32195996h1.2836135z" fill="#16465e"/><g fill="#40ac4a"><path d="m46.815513 14.9326552h.6131678v3.348557c0 .4097577-.3297153.7387387-.7380043.7387387h-2.6112871c-.4082889 0-.73727-.328981-.73727-.7387387v-3.348557h.6124335v3.348557c0 .0690273.0572779.1248366.1248365.1248366h2.6112871c.0682929 0 .1248365-.0558093.1248365-.1248366z"/><path d="m52.4162684 14.9326552h.6124335v4.0872957h-.726255l-2.7471386-3.2699834v3.2699834h-.6139021v-4.0872957h.7277237l2.7471385 3.2699834z"/><path d="m54.5597856 19.0199509h.6124334v-4.0872957h-.6124334z"/><path d="m60.4880533 14.9326552h.7042251l-2.3557393 4.0872957h-.6131678l-2.3616139-4.0872957h.7093654l1.9584653 3.3933513z"/><path d="m65.4998739 15.5450886h-3.1333976v1.1235291h2.5202298v.6153708h-2.5202298v1.1220603h3.1333976v.6139021h-3.745831v-4.0872957h3.745831z"/><path d="m67.5868474 15.5509633v1.3959664l2.7353893.0007344c.0675586 0 .1255709-.0558093.1255709-.1241022v-1.1470277c0-.0682929-.0580123-.1248366-.1255709-.1248366zm3.4726593 1.2725986c0 .4016799-.3282467.7387386-.73727.7387386h-.414898l1.152168 1.3717335v.0859169h-.726255l-1.2263356-1.4576504h-1.3959665c-.0447943 0-.0844482-.0080776-.1241022-.0117493v1.4693997h-.6131678v-4.0821554h3.3485571c.4090233 0 .73727.3355901.73727.7387387z"/><path d="m100.890303 15.5509633v1.3959664l2.736124.0007344c.067559 0 .124837-.0558093.124837-.1241022v-1.1470277c0-.0682929-.057278-.1248366-.124837-.1248366zm3.473394 1.2725986c0 .4016799-.328981.7387386-.73727.7387386h-.414898l1.152168 1.3717335v.0859169h-.726255l-1.226336-1.4576504h-1.395966c-.044794 0-.085183-.0080776-.124837-.0117493v1.4693997h-.612433v-4.0821554h3.348557c.408289 0 .73727.3355901.73727.7387387z"/><path d="m127.606795 15.5509633v1.3959664l2.736124.0007344c.067558 0 .124836-.0558093.124836-.1241022v-1.1470277c0-.0682929-.057278-.1248366-.124836-.1248366zm3.473394 1.2725986c0 .4016799-.328981.7387386-.73727.7387386h-.414898l1.152168 1.3717335v.0859169h-.726255l-1.226336-1.4576504h-1.395966c-.044794 0-.085183-.0080776-.124837-.0117493v1.4693997h-.613168v-4.0821554h3.349292c.408289 0 .73727.3355901.73727.7387387z"/><path d="m76.6088588 15.9093177h-.6124335v-.2393925c0-.0668243-.0565436-.1248366-.1248365-.1248366h-2.611287c-.068293 0-.1248366.0580123-.1248366.1248366v.8745902c0 .0690273.0565436.1241023.1248366.1241023h2.611287c.4090233 0 .73727.331184.73727.739473v.8731215c0 .4097577-.3282467.7387387-.73727.7387387h-2.611287c-.408289 0-.7372701-.328981-.7372701-.7387387v-.2379238h.6124335v.2379238c0 .0690273.0565436.1248366.1248366.1248366h2.611287c.0682929 0 .1248365-.0558093.1248365-.1248366v-.8731215c0-.068293-.0565436-.1241022-.1248365-.1241022h-2.611287c-.408289 0-.7372701-.3304498-.7372701-.7394731v-.8745902c0-.4075546.3289811-.73727.7372701-.73727h2.611287c.4090233 0 .73727.3297154.73727.73727z"/><path d="m78.1113035 19.0199509h.6124334v-4.0872957h-.6124334z"/><path d="m83.8178028 14.9326552v.6124334h-1.7366968v3.4748623h-.6131678v-3.4748623h-1.7366968v-.6124334z"/><path d="m88.6276819 14.9326552-1.8857663 2.5540091v1.5332866h-.6131678v-1.5332866l-1.8835634-2.5540091h.7211147l1.4693997 1.8622677 1.4642594-1.8622677z"/><path d="m109.611238 15.5450886h-3.132663v1.1235291h2.520964v.6153708h-2.520964v1.1220603h3.132663v.6139021h-3.745096v-4.0872957h3.745096z"/><path d="m114.945431 15.9093177h-.613168v-.2393925c0-.0668243-.057278-.1248366-.125571-.1248366h-2.609818c-.069027 0-.125571.0580123-.125571.1248366v.8745902c0 .0690273.056544.1241023.125571.1241023h2.609818c.409024 0 .738739.331184.738739.739473v.8731215c0 .4097577-.329715.7387387-.738739.7387387h-2.609818c-.410492 0-.738004-.328981-.738004-.7387387v-.2379238h.612433v.2379238c0 .0690273.056544.1248366.125571.1248366h2.609818c.068293 0 .125571-.0558093.125571-.1248366v-.8731215c0-.068293-.057278-.1241022-.125571-.1241022h-2.609818c-.410492 0-.738004-.3304498-.738004-.7394731v-.8745902c0-.4075546.327512-.73727.738004-.73727h2.609818c.409024 0 .738739.3297154.738739.73727z"/><path d="m120.198113 15.5450886h-3.131929v1.1235291h2.519495v.6153708h-2.519495v1.1220603h3.131929v.6139021h-3.745097v-4.0872957h3.745097z"/><path d="m124.750975 16.9755687-.506689-1.3056435c-.029373-.0778393-.055809-.1248366-.124102-.1248366h-1.191088c-.067559 0-.086651.037451-.124102.1248366l-.4898 1.3056435zm-.630791-2.0429135c.409757 0 .647681.3128257.804094.73727l1.187416 3.3500257h-.644744l-.535329-1.4312144h-2.835993l-.525047 1.4312144h-.613903l1.234414-3.3500257c.158616-.4560206.329715-.73727.738004-.73727z"/><path d="m133.209019 15.5450886c-.067558 0-.124836.0580123-.124836.1248366v2.611287c0 .0690273.057278.1248366.124836.1248366h3.337542v.6139021h-3.337542c-.408289 0-.738004-.328981-.738004-.7387387v-2.611287c0-.4075546.329715-.73727.738004-.73727h3.337542v.6124334z"/><path d="m141.929954 14.9326552v4.0872957h-.612433v-1.7359624h-2.958627v1.7359624h-.612433v-4.0872957h.612433v1.7359625h2.958627v-1.7359625z"/><path d="m95.2139118 18.2848839c0 .0682929-.0558093.1248366-.1248366.1248366h-2.609084c-.068293 0-.1248366-.0558093-.1248366-.1248366l-.0014687-1.2204609c0-.017624.0036717-.0337793.0095464-.0492003.0205613-.04406.0704959-.0756363.1424605-.0756363h.7424104l1.9658086 1.2410223zm1.3335481.1307112-.719646-.4508802v-1.1712607h-.6139021v.7864703s-2.2353087-1.4047784-2.2499954-1.4106531l-.0117493-.0073433c-.0381853-.0212956-.0653556-.0609496-.06609-.1079469v-.375244c0-.0682929.057278-.1241022.1255709-.1241022h1.5090537c.0682929 0 .1255709.0558093.1255709.1241022v.2717031h.6116991v-.4024143c-.0609496-.346605-.3737753-.6124335-.73727-.6124335h-1.5090537c-.4090233 0-.7365356.3289811-.7365356.73727v.4596923c.0183583.2100191.1167588.2827181.3172317.399477h-.1130873c-.4097576 0-.7387386.1211649-.7387386.5309225v1.2204609c0 .4097577.3282467.7387387.7380043.7387387h2.6105527c.3194347 0 .5896692-.1997385.6932101-.4817222h.002203l.7629716.4817222z"/></g><path d="m38.9052813 19.0742915c.392868-.3649633-.8856052-.7952823-.8856052-.7952823s-1.3680618-.6307917-6.7999207-1.0735943v1.8688766h-8.4022346v-2.1435171c-1.6750128-.0455286-4.9802443-.0249673-7.2882519-.0007343v2.1442514h-8.37506428v-1.871814c-3.64082146.2460015-6.03694902.7174431-6.03694902.7174431s-.40241431.3348557-.45455193.3693693c-.45088027.3040137.01101499.4163666.31870038.5683735.12043056.0602153.12703956.0925259.08444826.2166281-.0337793.0976663-.31356006.1542099-.25995377.3231064.1123529.3517454.62051112.0146867.58820048.4795193-.0381853.5456092-1.26011489.2371894-1.38274845.746082-.09619758.4009456.45088027.0330449.44427128.8048286-.006609.7688463.55662417 1.5391613 2.13690812 1.9305606.37450967.092526 2.13470512.0631526 1.22853858.5859975-.1079469.0624183-.47144158.052872-.59260648.0653556-.17403684.017624-.57131083-.0007343-.68219506.1586159-.17109952.2452671.19312949.2386581.13732021.4670356-.20561315.026436-.64621276.0205613-.45308327.3701037.09840058.1769741.42370996.273906.60802747.2643597.98327146-.0536063.84741992.0337793 1.15216798.0675586-.54781218.1057439-1.04495541.6748518 1.02145677.6197768.04626296.3128257.60288714.2827181.79454797.2408611 12.86477436-2.8514138 18.42807876-1.6353589 18.46552976-2.4262352-.1791772-.3869933-1.9929789-.3451363-2.2925867-.359823-1.1771353-.0558093-3.6790067.0675586-3.5343432-.2335178.0653556-.7049594 13.1056355-.5301882 11.5782235-.0917916-.0690273.019827-.9847401.1718339-1.0985617.2320492-.7100997.3781813 1.9981192.4530832 2.2793686.4780506.3253094.0301076 1.1330754.0058746.9884118.3561513-.0447943.1079469-1.0148477-.0102807-.9744594.1453979.0330449.1277739.5801228.0580123.6374007.1476008.3921337.6175738-4.7959267.3106228-7.4791784.3686351-.785736.0168896-2.3248973.1035409-3.1275229.2122221-1.3563125.1835832-.1997385.4993462 1.911468.6946787 1.1308723.1050096 6.9453185.5713109 11.8807685 1.2197266 1.4833521.2687658 1.9261547-.4596922 1.593502-.6579621-.1894579-.1123529.6241827-.5235792-.2856554-.9113068-.5771855-.2460015-.101338-.3466051-.06609-.3348557.0829796.0264359 1.2579119.3062167.823187-.0888543-.2805151-.2548134.1916608-.1057439.2768434-.1116186 1.0941557-.0837139.8400766-.4964089.9083695-.4288503-.3260437-.320169.5529525-.5514838.3502767-1.2645208-.0594809-.2092849-1.3181272-.1674279-.4912686-.3399961.0939946-.019827 1.2439596.011015.1791772-.6146364-.2460014-.1446636-.4817222-.1512726-.8349363-.2313148-.7901419-.1791772-.1968011-.5757169.1953325-.5103612.4795193.0793079.9627102-.2386582.8804649-.7078968-.0998692-.6366664-.3172317-1.5391613.3348557-1.6647322" fill="#16465e"/><path d="m8.40330452 0v19.0742915h7.12596438v-11.88884616h7.2882519v11.88884616h7.1259644v-19.0742915z" fill="#40ac4a"/></g></svg>